<svg id="visual" viewBox="   600" width="1800" height="600" xmlns="http://www.w3.org/2000/svg"  version="1.1"><path d="M0 260L18.8 249.8C37.7 239.7 75.3 219.3 112.8 208C150.3 196.7 187.7 194.3 225.2 206.7C262.7 219 300.3 246 337.8 248C375.3 250 412.7 227 450.2 220.2C487.7 213.3 525.3 222.7 562.8 231.7C600.3 240.7 637.7 249.3 675.2 256.7C712.7 264 750.3 270 787.8 259.5C825.3 249 862.7 222 881.3 208.5L900 195L900 0L881.3 0C862.7 0 825.3 0 787.8 0C750.3 0 712.7 0 675.2 0C637.7 0 600.3 0 562.8 0C525.3 0 487.7 0 450.2 0C412.7 0 375.3 0 337.8 0C300.3 0 262.7 0 225.2 0C187.7 0 150.3 0 112.8 0C75.3 0 37.7 0 18.8 0L0 0Z" fill="#0066FF" stroke-linecap="round" stroke-linejoin="miter">
</path>
</svg>